<?xml version="1.0" encoding="utf-8"?>
<!-- Generator: Adobe Illustrator 17.0.0, SVG Export Plug-In . SVG Version: 6.00 Build 0)  -->
<!DOCTYPE svg PUBLIC "-//W3C//DTD SVG 1.1//EN" "http://www.w3.org/Graphics/SVG/1.1/DTD/svg11.dtd">
<svg version="1.1" id="Layer_1" xmlns="http://www.w3.org/2000/svg" xmlns:xlink="http://www.w3.org/1999/xlink" x="0px" y="0px"
	 width="1920px" height="900px" viewBox="0 0 1920 900" enable-background="new 0 0 1920 900" xml:space="preserve">
<rect x="35.998" y="364" width="107" height="536"/>
<rect x="213.495" y="392" fill="#4C4C4C" width="95" height="508"/>
<rect x="127.997" y="297" fill="#131313" width="107" height="603"/>
<rect x="270.997" y="266" fill="#858585" width="112" height="634"/>
<rect x="373.997" y="378.094" fill="#5C5C5C" width="113.617" height="521.906"/>
<rect x="373.997" y="258.1" fill="#5C5C5C" width="41.998" height="119.994"/>
<rect x="448.616" y="258.1" fill="#5C5C5C" width="49.498" height="641.9"/>
<rect x="487.614" y="156.105" fill="#262626" width="125.994" height="743.895"/>
<rect x="582.609" y="229.601" width="106.495" height="670.399"/>
<rect x="662.105" y="385.594" fill="#131313" width="125.994" height="514.406"/>
<rect x="758.6" y="282.599" fill="#ADADAD" width="85.496" height="616.401"/>
<rect x="813.098" y="163.605" fill="#858585" width="110.994" height="736.395"/>
<rect x="868.595" y="91.608" fill="#1A1A1A" width="53.997" height="808.392"/>
<rect x="907.593" y="64.61" fill="#262626" width="64.497" height="835.39"/>
<rect x="960" y="91.608" fill="#262626" width="62.997" height="808.392"/>
</svg>
